<svg id="Слой_1" data-name="Слой 1" xmlns="http://www.w3.org/2000/svg" viewBox="0 0 108.28 43.48"><defs><style>.cls-1{fill:#fff;}</style></defs><title>logo-elena</title><path class="cls-1" d="M106.41,27c-2.7,3.85-8.17,10-9.52,9.1-1.51-1,.62-4.94,2.44-7.75,1.56-2.5,3.22-4.58,3.69-5.2s-1-2.24-2.39-2.76c-0.05-1.4-1.61-2-2.6-2.76-1.66-1.3-2.91-1.56-4.78-.62A21.42,21.42,0,0,0,86,23.9c-0.75,1.14-1.41,2.2-2,3.19-4.6,6.48-9.76,9.7-10.31,9.19s0.16-1.87.88-3.43c1.82-3.74,6.4-10.09,8.94-13.62,1.4-1.92-3-4.11-4-2.91-3.59,3.85-9.57,9.93-14.87,15,2.13-3.54,4.84-8.16,6.14-10.76s-2-5.67-3-4.21c-0.69,1-4.05,6.6-7,11.56C55.51,34.72,49,37.23,46.51,35.55c-1-.68-1-3-0.26-5.3,0.88,0.83,2.39,2,3.74,1.77,3.69-.78,7.07-4,8.89-8.53C60.18,20.1,60,18.7,56,15.84a3.76,3.76,0,0,0-3.22-.52c-3.86,1.06-8.93,7.59-10.67,13-3,3.91-7.94,9.28-9.61,7.38s2.76-8.06,4-9.93c0.05-.1.68-0.88,1.46-1.87A153,153,0,0,0,51.45,6.06a4.14,4.14,0,0,0-.1-4.37C50.2,0,48.85-.23,48.27.4,45.14,3.58,34.67,20,30.9,26.59a34.72,34.72,0,0,1-7.74,8C15,40.49,7.82,40.8,5.53,37.89c-1.66-2-.83-7.12,10.92-9.67,1.61-.31,2.6-5,1.3-5.2-5.51-.62-7.28-2.76-7.12-5a22,22,0,0,0,5.88,1.77c10.14,1.51,22.36-9.2,15.76-14.87-7.7-6.55-19.55-.83-24.18,6.76-1-2-.88-4.52,1.4-7.28C10.42,3.26,6.36,1.85,4.13,6c-1.77,3.28-.47,6.66,2.39,9.26-1,3.64-.1,7.28,3.69,10.09C3.92,27-2.53,32,1,36.69c9.55,12.79,21.74,5.19,28.46-2.37a9.23,9.23,0,0,0,.29.91,5.71,5.71,0,0,0,1.4,2.29C33.57,40,37.79,39,42,34.34a6.21,6.21,0,0,0,2.73,2.92c3.59,2.38,8,1.65,11.73-.39,0.76,1.2,3.16,2.25,3.87,1.69,2.39-2,7.49-6.66,12-11.13l-0.47.78c-1.09,2-2.13,5.25-1.61,7.12,1.28,4.22,6.75,5.13,12.34-.54A6.78,6.78,0,0,0,84,37.11c3.43,3.43,6.81,1.14,9.78-2.29a4,4,0,0,0,1.61,3.28c2.44,1.77,7.28.57,12.12-6.71C109.48,28.53,107,26,106.41,27ZM49.16,25.36c3.12-4.42,5.93-6.55,6.4-6.19s-0.68,3.17-3.22,6.19c-1.92,2.29-4.11,4.16-4.89,3.74C47,28.84,47.81,27.23,49.16,25.36ZM19.67,7.83c5.25-3,9.41-3.07,10-1.77,1.4,3.22-6,11-15.39,9.57a10.14,10.14,0,0,1-2.44-.73A22.67,22.67,0,0,1,19.67,7.83Zm74.62,19.4-0.94,1.35c-5.2,6.5-7.8,7.75-8.27,7.12-0.57-.78,1.66-4.78,3.85-8,3.28-4.84,7.23-8.06,8.11-7.33S95.7,25,94.29,27.23Z" transform="translate(0 -0.09)"/></svg>